<?xml version="1.0" encoding="UTF-8"?>
<svg width="72px" height="65px" viewBox="0 0 72 65" version="1.1" xmlns="http://www.w3.org/2000/svg" xmlns:xlink="http://www.w3.org/1999/xlink">
    <!-- Generator: sketchtool 54.1 (76490) - https://sketchapp.com -->
    <title>84315EB2-3C8E-4F78-8607-07CE30848B11</title>
    <desc>Created with sketchtool.</desc>
    <defs>
        <filter x="-37.4%" y="-135.1%" width="174.8%" height="370.2%" filterUnits="objectBoundingBox" id="filter-1">
            <feOffset dx="0" dy="10" in="SourceAlpha" result="shadowOffsetOuter1"></feOffset>
            <feGaussianBlur stdDeviation="15" in="shadowOffsetOuter1" result="shadowBlurOuter1"></feGaussianBlur>
            <feColorMatrix values="0 0 0 0 0   0 0 0 0 0   0 0 0 0 0  0 0 0 0.1 0" type="matrix" in="shadowBlurOuter1" result="shadowMatrixOuter1"></feColorMatrix>
            <feMerge>
                <feMergeNode in="shadowMatrixOuter1"></feMergeNode>
                <feMergeNode in="SourceGraphic"></feMergeNode>
            </feMerge>
        </filter>
    </defs>
    <g id="Page-1" stroke="none" stroke-width="1" fill="none" fill-rule="evenodd">
        <g id="Home" transform="translate(-369.000000, -1565.000000)" fill="#FFFFFF" fill-rule="nonzero">
            <g id="Group-Copy" transform="translate(0.000000, 1149.000000)">
                <g id="Group-22" transform="translate(168.000000, 177.000000)">
                    <g id="Button-Copy-2" filter="url(#filter-1)" transform="translate(70.000000, 233.000000)">
                        <path d="M175.71398,27.8530807 L169.464735,21.3665854 C169.083453,20.9708281 168.465091,20.9708281 168.083809,21.3665854 C167.702449,21.7624238 167.702449,22.4041003 168.083809,22.7999387 L172.666145,27.5562424 L155.976444,27.5562424 C155.437213,27.5562424 155,28.0100538 155,28.5697573 C155,29.1293797 155.437213,29.5832722 155.976444,29.5832722 L172.666145,29.5832722 L168.083965,34.3395759 C167.702605,34.7354143 167.702605,35.3770908 168.083965,35.7729292 C168.274567,35.9706862 168.524537,36.0697674 168.774428,36.0697674 C169.02432,36.0697674 169.274212,35.9706862 169.464892,35.7729292 L175.71398,29.286434 C176.09534,28.8905956 176.09534,28.248919 175.71398,27.8530807 Z" id="Path"></path>
                    </g>
                </g>
            </g>
        </g>
    </g>
</svg>