<?xml version="1.0" encoding="UTF-8"?>
<svg width="25px" height="19px" viewBox="0 0 25 19" version="1.1" xmlns="http://www.w3.org/2000/svg" xmlns:xlink="http://www.w3.org/1999/xlink">
    <!-- Generator: sketchtool 54.1 (76490) - https://sketchapp.com -->
    <title>73BC1DD3-1AB9-4D5B-B3F3-47F8AB2EE9B7</title>
    <desc>Created with sketchtool.</desc>
    <g id="Page-1" stroke="none" stroke-width="1" fill="none" fill-rule="evenodd">
        <g id="Home" transform="translate(-1251.000000, -2111.000000)" fill="#EA3E3C" fill-rule="nonzero">
            <g id="Group-9" transform="translate(165.000000, 1836.000000)">
                <g id="Group-10" transform="translate(1045.000000, 275.000000)">
                    <path d="M55.5604213,2.63992709 C55.0007263,2.03601922 55.0007263,1.06158047 55.5604213,0.457672607 C56.1259758,-0.152557536 57.0478483,-0.152557536 57.6134027,0.457672607 L64.9824742,8.40886034 C65.5421692,9.0127682 65.5421692,9.98720695 64.9824767,10.5911121 L57.6135032,18.5423929 C57.338714,18.838646 56.9700522,19 56.5870963,19 C56.2040987,19 55.8353384,18.8386163 55.5606056,18.5423025 C55.0009106,17.9383947 55.0009106,16.9639559 55.5606021,16.3600518 L60.4828314,11.0488123 L42.4462159,11.0488123 C41.645064,11.0488123 41,10.3527533 41,9.49998758 C41,8.64715319 41.645036,7.95116288 42.4462159,7.95116288 L60.482815,7.95116288 L55.5604213,2.63992709 Z" id="Path"></path>
                </g>
            </g>
        </g>
    </g>
</svg>