<?xml version="1.0" encoding="UTF-8"?>
<svg width="190px" height="81px" viewBox="0 0 190 81" version="1.1" xmlns="http://www.w3.org/2000/svg" xmlns:xlink="http://www.w3.org/1999/xlink">
    <!-- Generator: sketchtool 54.1 (76490) - https://sketchapp.com -->
    <title>08E1D5CD-8DC0-4040-B007-591E7789C7F5</title>
    <desc>Created with sketchtool.</desc>
    <g id="Page-1" stroke="none" stroke-width="1" fill="none" fill-rule="evenodd">
        <g id="Home" transform="translate(-1001.000000, -1372.000000)">
            <g id="Group-Copy" transform="translate(0.000000, 1149.000000)">
                <g id="Group-22" transform="translate(168.000000, 177.000000)">
                    <g id="Group-7" transform="translate(841.000000, 46.000000)">
                        <path d="M180.311401,26.8004427 C180.307861,26.8004427 180.304321,26.8 180.300781,26.8 L164.894531,26.8 L164.894531,25.1 C164.894531,22.2879167 162.607666,20 159.796875,20 L146.203125,20 C143.392334,20 141.105469,22.2879167 141.105469,25.1 L141.105469,26.8 L125.699219,26.8 C124.753143,26.8 124,27.575625 124,28.5 L124,65.9 C124,68.7120833 126.286865,71 129.097656,71 L176.902344,71 C179.713135,71 182,68.7120833 182,65.9 L182,28.5358593 C182,28.5336458 182,28.5314323 182,28.5292187 C181.934952,27.4127083 181.248627,26.8066407 180.311401,26.8004427 Z M145,25.5 C145,24.6730469 145.762786,24 146.7,24 L160.3,24 C161.237214,24 162,24.6730469 162,25.5 L162,27 L145,27 L145,25.5 Z M178,30 L172.711095,45.837448 C172.479137,46.5329427 171.829833,47 171.095817,47 L161.51547,47 L161.51547,45.3 C161.51547,44.3610157 160.753069,43.6 159.812376,43.6 L146.187624,43.6 C145.246931,43.6 144.48453,44.3610157 144.48453,45.3 L144.48453,47 L134.904183,47 C134.170167,47 133.520863,46.5329427 133.288905,45.837448 L128,30 L178,30 Z M158,47 L158,50 L148,50 L148,47 L158,47 Z M179,66.2776807 C179,67.2271989 178.240589,68 177.307522,68 L129.692478,68 C128.759411,68 128,67.2271989 128,66.2776807 L128,39 L130.700472,47.2438096 C131.392448,49.357239 133.32822,50.7768068 135.516982,50.7768068 L145.037611,50.7768068 L145.037611,52.4991261 C145.037611,53.4504384 145.795259,54.2214455 146.730088,54.2214455 L160.269912,54.2214455 C161.204741,54.2214455 161.962389,53.4504384 161.962389,52.4991261 L161.962389,50.7768068 L171.483018,50.7768068 C173.67178,50.7768068 175.607552,49.357239 176.299528,47.2438096 L179,39 L179,66.2776807 Z" id="Shape-Copy" fill="#FF8800" fill-rule="nonzero" opacity="0.760486421"></path>
                        <rect id="Rectangle" fill="#FFFFFF" x="38" y="14" width="86" height="64"></rect>
                        <path d="M58,16 L58,76 L40,76 L40,16 L58,16 Z" id="Combined-Shape" fill-opacity="0.163406906" fill="#FF8800"></path>
                        <path d="M125.321533,10.8007031 C125.315918,10.8007031 125.310303,10.8 125.304688,10.8 L100.867188,10.8 L100.867188,8.1 C100.867188,3.63375 97.2397461,0 92.78125,0 L71.21875,0 C66.7602539,0 63.1328125,3.63375 63.1328125,8.1 L63.1328125,10.8 L38.6953125,10.8 C37.1946412,10.8 36,12.031875 36,13.5 L36,72.9 C36,77.36625 39.6274414,81 44.0859375,81 L119.914063,81 C124.372559,81 128,77.36625 128,72.9 L128,13.5569531 C128,13.5534375 128,13.5499219 128,13.5464062 C127.89682,11.773125 126.808167,10.8105469 125.321533,10.8007031 Z M68.5234375,8.1 C68.5234375,6.61148442 69.7328186,5.4 71.21875,5.4 L92.78125,5.4 C94.2671814,5.4 95.4765625,6.61148442 95.4765625,8.1 L95.4765625,10.8 L68.5234375,10.8 L68.5234375,8.1 Z M121.564941,16.2 L113.194733,41.3535938 C112.827637,42.4582031 111.800049,43.2 110.638397,43.2 L95.4765625,43.2 L95.4765625,40.5 C95.4765625,39.0086719 94.269989,37.8 92.78125,37.8 L71.21875,37.8 C69.730011,37.8 68.5234375,39.0086719 68.5234375,40.5 L68.5234375,43.2 L53.3616028,43.2 C52.1999512,43.2 51.1723633,42.4582031 50.8052673,41.3535938 L42.4350586,16.2 L121.564941,16.2 Z M90.0859375,43.2 L90.0859375,48.6 L73.9140625,48.6 L73.9140625,43.2 L90.0859375,43.2 Z M122.609375,72.9 C122.609375,74.3885156 121.399994,75.6 119.914062,75.6 L44.0859375,75.6 C42.6000061,75.6 41.390625,74.3885156 41.390625,72.9 L41.390625,30.1380469 L45.6911927,43.0614844 C46.7931823,46.3746094 49.875946,48.6 53.3616028,48.6 L68.5234375,48.6 L68.5234375,51.3 C68.5234375,52.7913281 69.730011,54 71.21875,54 L92.78125,54 C94.269989,54 95.4765625,52.7913281 95.4765625,51.3 L95.4765625,48.6 L110.638397,48.6 C114.124054,48.6 117.206818,46.3746094 118.308807,43.0614844 L122.609375,30.1380469 L122.609375,72.9 Z" id="Shape" fill="#FF8800" fill-rule="nonzero"></path>
                        <path d="M40.7772217,31.9336545 C40.7746582,31.9336545 40.7720947,31.9333333 40.7695312,31.9333333 L29.6132812,31.9333333 L29.6132812,30.7 C29.6132812,28.6598611 27.9572754,27 25.921875,27 L16.078125,27 C14.0427246,27 12.3867188,28.6598611 12.3867188,30.7 L12.3867188,31.9333333 L1.23046875,31.9333333 C0.54537968,31.9333333 0,32.4960417 0,33.1666667 L0,60.3 C0,62.3401389 1.65600586,64 3.69140625,64 L38.3085938,64 C40.3439941,64 42,62.3401389 42,60.3 L42,33.1926823 C42,33.1910764 42,33.1894705 42,33.1878645 C41.9528961,32.3778472 41.4559021,31.9381511 40.7772217,31.9336545 Z M15,31 C15,30.4486979 15.5384375,30 16.2,30 L25.8,30 C26.4615625,30 27,30.4486979 27,31 L27,32 L15,32 L15,31 Z M39,35 L35.1919884,46.179375 C35.0249787,46.6703125 34.5574794,47 34.0289881,47 L27.1311382,47 L27.1311382,45.8 C27.1311382,45.1371875 26.5822097,44.6 25.9049106,44.6 L16.0950894,44.6 C15.4177903,44.6 14.8688618,45.1371875 14.8688618,45.8 L14.8688618,47 L7.97101194,47 C7.44252058,47 6.97502129,46.6703125 6.80801162,46.179375 L3,35 L39,35 Z M25,47 L25,49 L18,49 L18,47 L25,47 Z M40,60.7528033 C40,61.4403854 39.4490545,62 38.7721239,62 L4.22787611,62 C3.55094547,62 3,61.4403854 3,60.7528033 L3,41 L4.95916588,46.9696553 C5.4611881,48.5000696 6.8655714,49.5280325 8.45349663,49.5280325 L15.3606195,49.5280325 L15.3606195,50.7752293 C15.3606195,51.4641106 15.9102859,52.022426 16.5884956,52.022426 L26.4115044,52.022426 C27.0897141,52.022426 27.6393805,51.4641106 27.6393805,50.7752293 L27.6393805,49.5280325 L34.5465034,49.5280325 C36.1344286,49.5280325 37.5388119,48.5000696 38.0408341,46.9696553 L40,41 L40,60.7528033 Z" id="Shape-Copy-2" fill="#FF8800" fill-rule="nonzero" opacity="0.760486421"></path>
                    </g>
                </g>
            </g>
        </g>
    </g>
</svg>