<?xml version="1.0" encoding="UTF-8"?>
<svg width="172px" height="84px" viewBox="0 0 172 84" version="1.1" xmlns="http://www.w3.org/2000/svg" xmlns:xlink="http://www.w3.org/1999/xlink">
    <!-- Generator: sketchtool 54.1 (76490) - https://sketchapp.com -->
    <title>40FEB190-05D9-401F-B40D-1092F3BD1B93</title>
    <desc>Created with sketchtool.</desc>
    <defs>
        <filter x="-13.5%" y="-11.2%" width="126.9%" height="122.4%" filterUnits="objectBoundingBox" id="filter-1">
            <feGaussianBlur stdDeviation="2 0" in="SourceGraphic"></feGaussianBlur>
        </filter>
        <filter x="-17.2%" y="-14.0%" width="134.4%" height="128.0%" filterUnits="objectBoundingBox" id="filter-2">
            <feGaussianBlur stdDeviation="2 0" in="SourceGraphic"></feGaussianBlur>
        </filter>
    </defs>
    <g id="Page-1" stroke="none" stroke-width="1" fill="none" fill-rule="evenodd">
        <g id="Home" transform="translate(-632.000000, -1367.000000)" fill-rule="nonzero">
            <g id="Group-Copy" transform="translate(0.000000, 1149.000000)">
                <g id="Group-22" transform="translate(168.000000, 177.000000)">
                    <g id="Group-2" transform="translate(462.000000, 41.000000)">
                        <path d="M91.6036847,7.62737882 C91.6036847,3.41482409 88.1892668,0 83.9767373,0 C80.1155972,0 76.9249725,2.86888781 76.4195451,6.59137565 C75.5832423,6.23987862 74.6645275,6.04563137 73.7003864,6.04563137 C69.8215361,6.04563137 66.6779303,9.18961118 66.6779303,13.0684471 L66.6779303,15.6309478 C65.8604003,15.297703 64.9659345,15.1140784 64.0285267,15.1140784 L64.0164369,15.1140784 C60.1375866,15.1140784 56.9939807,18.2580582 56.9939807,22.1368941 L56.9939807,55.0763006 L57.003523,55.2141997 C58.0769834,70.7272907 66.3359846,77 81.3169759,77 C90.5720739,77 98.9470574,72.3126255 103.110343,64.9378017 C103.416841,64.4449648 104.025927,63.4829749 105.057181,61.8612354 C105.255833,61.5488378 107.56123,57.9262211 108.287154,56.7839531 L108.334835,56.7089221 C111.734823,51.3585547 113.430707,48.6543978 113.839677,47.8796997 C114.67908,46.2889381 115.61845,44.9931646 116.502387,44.27097 C117.72618,43.271332 118.5091,42.1758039 119.39893,40.5355708 C120.025101,39.3750281 120.140773,37.5871164 119.828947,36.111141 C119.272805,33.4787339 117.283632,31.4253773 114.185887,31.4373128 C111.528179,31.4474322 108.595036,32.4507688 106.303224,33.9999014 C104.96666,34.9035374 103.683491,35.9968685 102.484527,37.2924298 L102.484527,16.0912627 C102.484527,11.878708 99.0701089,8.46388392 94.8575795,8.46388392 C93.6936171,8.46388392 92.5905882,8.7245955 91.6036847,9.19080998 L91.6036847,7.62737882 Z M66.6779303,37.2509726 C66.6779303,36.0430966 67.6562485,35.064662 68.8644566,35.064662 C70.0726646,35.064662 71.0509829,36.0430966 71.0509829,37.2509726 L71.0509829,22.1368941 C71.0509829,19.1954626 69.2432145,16.6766188 66.6779303,15.6309478 L66.6779303,37.2509726 Z M87.2306321,16.0912627 L87.2306321,34.83272 C87.2306321,33.6248441 88.2089504,32.6464094 89.4171584,32.6464094 C90.6253664,32.6464094 91.6036847,33.6248441 91.6036847,34.83272 L91.6036847,9.19080998 C89.0188576,10.4118857 87.2306321,13.0426774 87.2306321,16.0912627 Z M91.2306321,16.0912627 C91.2306321,14.0877405 92.8542955,12.4638839 94.8575795,12.4638839 C96.8608634,12.4638839 98.4845269,14.0877405 98.4845269,16.0912627 L98.4845269,42.8552728 C98.5594838,45.355746 98.2463573,45.949427 99.4565488,45.9216171 C100.739279,45.892598 101.880559,45.116339 102.517692,44.0015246 C104.478662,40.5736516 106.77452,38.509673 108.543261,37.3138471 C110.120983,36.2473977 112.295942,35.4445379 114.201299,35.4372831 C116.39802,35.4288193 116.014773,38.3839239 115.882993,38.6281674 C115.366758,39.5797498 114.809417,40.4890127 113.971592,41.1733782 C112.399915,42.4574703 111.153454,44.3993271 110.30233,46.0123015 C109.572105,47.395542 101.069331,60.6366838 99.6657027,62.9025865 C96.3277021,68.8780885 89.377262,73 81.3169759,73 C70.0129899,73 62.0046901,69.5443171 60.9939807,54.9380717 L60.9939807,22.1368941 C60.9939807,20.4670907 62.3468321,19.1140784 64.0164369,19.1140784 L64.0285267,19.1140784 C65.6981315,19.1140784 67.0509829,20.4670907 67.0509829,22.1368941 L67.0509829,37.2509726 C67.0509829,38.2521291 67.8634191,39.064662 68.8644566,39.064662 C69.865494,39.064662 70.6779303,38.2521291 70.6779303,37.2509726 L70.6779303,13.0684471 C70.6779303,11.3986437 72.0307816,10.0456314 73.7003864,10.0456314 C75.3699912,10.0456314 76.7228426,11.3986437 76.7228426,13.0684471 L76.7228426,34.83272 C76.7228426,35.8338766 77.5352788,36.6464094 78.5363163,36.6464094 C79.5373537,36.6464094 80.3497899,35.8338766 80.3497899,34.83272 L80.3497899,7.62737882 C80.3497899,5.62385659 81.9734534,4 83.9767373,4 C85.9800213,4 87.6036847,5.62385659 87.6036847,7.62737882 L87.6036847,34.83272 C87.6036847,35.8338766 88.4161209,36.6464094 89.4171584,36.6464094 C90.4181959,36.6464094 91.2306321,35.8338766 91.2306321,34.83272 L91.2306321,16.0912627 Z" id="Path" fill="#2E6765"></path>
                        <path d="M97.609704,13.7214337 C98.158599,14.3570814 98.4905461,15.185362 98.4905461,16.0912627 L98.4905461,33.3882445 C97.9629318,33.0709873 97.609704,32.4928582 97.609704,31.83272 L97.609704,13.7214337 Z M92.6681107,69.9615122 C89.4242262,71.8800904 85.5243814,73 81.3229952,73 C70.0190092,73 62.0107093,69.5443171 61,54.9380717 L61,22.1368941 C61,20.4670907 62.3528514,19.1140784 64.0224562,19.1140784 L64.034546,19.1140784 C65.7041508,19.1140784 67.0570021,20.4670907 67.0570021,22.1368941 L67.0570021,37.2509726 C67.0570021,38.2521291 67.8694383,39.064662 68.8704758,39.064662 C69.8715133,39.064662 70.6839495,38.2521291 70.6839495,37.2509726 L70.6839495,13.0684471 C70.6839495,11.3986437 72.0368009,10.0456314 73.7064057,10.0456314 C75.3760104,10.0456314 76.7288618,11.3986437 76.7288618,13.0684471 L76.7288618,17.7653942 C76.2291541,16.785175 75.2104052,16.1140784 74.034546,16.1140784 L74.0224562,16.1140784 C72.3528514,16.1140784 71,17.4670907 71,19.1368941 L71,51.9380717 C72.0107093,66.5443171 80.0190092,70 91.3229952,70 C91.7750044,70 92.2235234,69.9870374 92.6681107,69.9615122 Z M80.2597531,35.41635 C80.3220274,35.2331765 80.3558092,35.0368698 80.3558092,34.83272 L80.3558092,7.62737882 C80.3558092,5.62385659 81.9794726,4 83.9827566,4 C85.9860405,4 87.609704,5.62385659 87.609704,7.62737882 L87.609704,33.3882445 C87.0820897,33.0709873 86.7288618,32.4928582 86.7288618,31.83272 L86.7288618,10.0684471 C86.7288618,8.39864368 85.3760104,7.04563137 83.7064057,7.04563137 C82.0368009,7.04563137 80.6839495,8.39864368 80.6839495,10.0684471 L80.6839495,34.2509726 C80.6839495,34.6945476 80.5244647,35.1010949 80.2597531,35.41635 Z" id="Combined-Shape" fill-opacity="0.186024913" fill="#55A6AC"></path>
                        <path d="M151.361814,36.0140425 L151.361814,34.9171489 C151.361814,31.9649546 148.945095,29.5937549 145.989979,29.5937549 C143.277904,29.5937549 141.019307,31.5909596 140.666139,34.2015335 C140.06361,33.9426752 139.399567,33.7994116 138.703112,33.7994116 C135.984605,33.7994116 133.759916,35.9821978 133.759916,38.7022399 L133.759916,40.4896976 C133.170191,40.243673 132.522896,40.1078965 131.844884,40.1078965 L131.836311,40.1078965 C129.117804,40.1078965 126.893115,42.2906827 126.893115,45.0107248 L126.893115,67.8289353 L126.900054,68.0259405 C127.66272,78.8387012 133.507601,83.1937549 144.103966,83.1937549 C150.641406,83.1937549 156.562853,79.9425526 159.514051,74.8143896 C159.731416,74.471511 160.163235,73.8024238 160.894086,72.6748769 C161.034944,72.4575629 162.669683,69.9374779 163.184434,69.1428488 L163.218245,69.0906528 C165.630548,65.366492 166.832241,63.4866583 167.122901,62.9465065 C167.717208,61.8415731 168.382143,60.9417408 169.01025,60.438291 C169.876679,59.743973 170.433046,58.9802114 171.064728,57.8378943 C171.51551,57.0182491 171.598622,55.7579487 171.374597,54.7176553 C170.978529,52.8784631 169.572939,51.4550187 167.411357,51.4631893 C165.544347,51.4701633 163.478395,52.1634678 161.862432,53.2350643 C160.886307,53.8825038 159.949935,54.670604 159.077321,55.6091188 L159.077321,40.8050682 C159.077321,37.8528739 156.660601,35.4816742 153.705485,35.4816742 C152.866543,35.4816742 152.070993,35.6727841 151.361814,36.0140425 Z M133.759916,55.5248663 C133.759916,54.6628833 134.449219,53.9865633 135.273998,53.9865633 C136.098777,53.9865633 136.78808,54.6628833 136.78808,55.5248663 L136.78808,45.0107248 C136.78808,42.9690774 135.53471,41.2301153 133.759916,40.4896976 L133.759916,55.5248663 Z M151.361814,36.0140425 C149.572959,36.8748431 148.33365,38.6909867 148.33365,40.8050682 L148.33365,53.8426036 C148.33365,52.9806207 149.022953,52.3043006 149.847732,52.3043006 C150.672511,52.3043006 151.361814,52.9806207 151.361814,53.8426036 L151.361814,36.0140425 Z M151.13365,40.8050682 C151.13365,39.4113136 152.284975,38.2816742 153.705485,38.2816742 C155.125996,38.2816742 156.277321,39.4113136 156.277321,40.8050682 L156.277321,59.42351 C156.330472,61.1629695 156.108437,61.575965 156.966573,61.556619 C157.876145,61.5364318 158.685416,60.9964255 159.137202,60.2209025 C160.527707,57.8362952 162.155679,56.400484 163.409878,55.5686051 C164.528626,54.8267273 166.07087,54.2682161 167.421941,54.2631693 C168.979616,54.2572814 168.707858,56.3130063 168.614415,56.4829149 C168.248357,57.1448852 167.853152,57.777416 167.259058,58.2534963 C166.144596,59.1467778 165.260742,60.4976347 164.657218,61.6197038 C164.139422,62.5819581 158.110182,71.7931872 157.114882,73.3694673 C154.747936,77.5263383 149.819442,80.3937549 144.103966,80.3937549 C136.088413,80.3937549 130.4098,77.9898016 129.693115,67.8289353 L129.693115,45.0107248 C129.693115,43.8491224 130.65241,42.9078965 131.836311,42.9078965 L131.844884,42.9078965 C133.028786,42.9078965 133.98808,43.8491224 133.98808,45.0107248 L133.98808,55.5248663 C133.98808,56.221323 134.564172,56.7865633 135.273998,56.7865633 C135.983825,56.7865633 136.559916,56.221323 136.559916,55.5248663 L136.559916,38.7022399 C136.559916,37.5406375 137.51921,36.5994116 138.703112,36.5994116 C139.887014,36.5994116 140.846308,37.5406375 140.846308,38.7022399 L140.846308,53.8426036 C140.846308,54.5390604 141.422399,55.1043006 142.132226,55.1043006 C142.842052,55.1043006 143.418144,54.5390604 143.418144,53.8426036 L143.418144,34.9171489 C143.418144,33.5233943 144.569469,32.3937549 145.989979,32.3937549 C147.410489,32.3937549 148.561814,33.5233943 148.561814,34.9171489 L148.561814,53.8426036 C148.561814,54.5390604 149.137906,55.1043006 149.847732,55.1043006 C150.557559,55.1043006 151.13365,54.5390604 151.13365,53.8426036 L151.13365,40.8050682 Z" id="Path-Copy-3" fill="#2E6765" opacity="0.827938988" filter="url(#filter-1)" transform="translate(149.193738, 56.393755) rotate(37.000000) translate(-149.193738, -56.393755) "></path>
                        <path d="M28.943967,43.0772029 C28.943967,40.8639932 27.1538589,39.0669453 24.9416271,39.0669453 C22.7722057,39.0669453 21.0087285,40.7951143 20.9412884,42.9491923 C20.4130619,42.6529619 19.803898,42.4840413 19.1549974,42.4840413 C17.1306609,42.4840413 15.4930475,44.1280033 15.4930475,46.1525893 L15.4930475,48.0737149 C14.9652839,47.7781796 14.356839,47.6096853 13.7087577,47.6096853 L13.7019499,47.6096853 C11.6776134,47.6096853 10.04,49.2536473 10.04,51.2782333 L10.04,69.8180293 L10.0446409,69.9528279 C10.6371136,78.5471064 15.1492448,81.9869453 23.4439112,81.9869453 C28.5730902,81.9869453 33.2071368,79.3726063 35.4887529,75.2728378 C35.6083434,75.0828483 35.9562319,74.5311181 36.5670964,73.5668694 C36.6790057,73.3902207 37.9771481,71.342703 38.3858552,70.6971706 L38.4126998,70.6547695 C40.3141396,67.6513387 41.2761571,66.111599 41.500324,65.6853719 C41.9900269,64.7538433 42.540651,63.991455 43.0746556,63.553523 C43.7269941,63.0186674 44.1483441,62.4268633 44.6323657,61.5313089 C44.9456541,60.9484795 45.0061726,60.0095413 44.8442788,59.2403639 C44.5579224,57.8798494 43.5444125,56.8297065 41.9535461,56.8358591 C40.5169741,56.8413495 38.9198639,57.3897238 37.6746322,58.2345913 C36.7496583,58.8623054 35.8705081,59.6566228 35.0709867,60.6319001 L35.0709867,47.8611373 C35.0709867,45.6479276 33.2808786,43.8508797 31.0686468,43.8508797 C30.2877708,43.8508797 29.5594896,44.074784 28.943967,44.4618615 L28.943967,43.0772029 Z M29.0263069,47.8611373 C29.0263069,46.7287117 29.9405944,45.8108797 31.0686468,45.8108797 C32.1966992,45.8108797 33.1109867,46.7287117 33.1109867,47.8611373 L33.1109867,62.9886212 C33.153195,64.4019321 32.976873,64.737491 33.6583337,64.7217723 C34.3806413,64.7053703 35.0232976,64.2666151 35.3820686,63.6365026 C36.4862937,61.6990092 37.7790949,60.5324126 38.775076,59.8565111 C39.6634938,59.2537353 40.888217,58.799945 41.9611262,58.7958445 C43.1981034,58.7910605 42.9822961,60.461337 42.9080911,60.5993877 C42.6173981,61.1372386 42.3035585,61.6511699 41.831778,62.0379851 C40.946764,62.7637763 40.2448799,63.8613476 39.7656108,64.7730288 C39.3544197,65.5548603 34.5664942,73.038984 33.7761087,74.3197116 C31.8964752,77.6971692 27.9826712,80.0269453 23.4439112,80.0269453 C17.0786185,80.0269453 12.569132,78.0737332 12,69.8180293 L12,51.2782333 C12,50.3344314 12.7617928,49.5696853 13.7019499,49.5696853 L13.7087577,49.5696853 C14.6489148,49.5696853 15.4107076,50.3344314 15.4107076,51.2782333 L15.4107076,59.8209733 C15.4107076,60.3868444 15.8681918,60.8461021 16.4318776,60.8461021 C16.9955634,60.8461021 17.4530475,60.3868444 17.4530475,59.8209733 L17.4530475,46.1525893 C17.4530475,45.2087874 18.2148403,44.4440413 19.1549974,44.4440413 C20.0951545,44.4440413 20.8569473,45.2087874 20.8569473,46.1525893 L20.8569473,58.4541349 C20.8569473,59.020006 21.3144315,59.4792637 21.8781173,59.4792637 C22.4418031,59.4792637 22.8992872,59.020006 22.8992872,58.4541349 L22.8992872,43.0772029 C22.8992872,41.9447773 23.8135747,41.0269453 24.9416271,41.0269453 C26.0696795,41.0269453 26.983967,41.9447773 26.983967,43.0772029 L26.983967,58.4541349 C26.983967,59.020006 27.4414511,59.4792637 28.0051369,59.4792637 C28.5688227,59.4792637 29.0263069,59.020006 29.0263069,58.4541349 L29.0263069,47.8611373 Z" id="Path-Copy-4" fill="#2E6765" opacity="0.827938988" filter="url(#filter-2)" transform="translate(27.485625, 60.526945) rotate(-40.000000) translate(-27.485625, -60.526945) "></path>
                    </g>
                </g>
            </g>
        </g>
    </g>
</svg>