<?xml version="1.0" encoding="UTF-8"?>
<svg width="186px" height="91px" viewBox="0 0 186 91" version="1.1" xmlns="http://www.w3.org/2000/svg" xmlns:xlink="http://www.w3.org/1999/xlink">
    <!-- Generator: sketchtool 54.1 (76490) - https://sketchapp.com -->
    <title>03B0DE65-C236-4D1C-AB29-65849E280897</title>
    <desc>Created with sketchtool.</desc>
    <defs>
        <filter x="-11.3%" y="-12.8%" width="122.7%" height="125.6%" filterUnits="objectBoundingBox" id="filter-1">
            <feGaussianBlur stdDeviation="2 0" in="SourceGraphic"></feGaussianBlur>
        </filter>
        <filter x="-16.2%" y="-18.3%" width="132.4%" height="136.5%" filterUnits="objectBoundingBox" id="filter-2">
            <feGaussianBlur stdDeviation="2 0" in="SourceGraphic"></feGaussianBlur>
        </filter>
    </defs>
    <g id="Page-1" stroke="none" stroke-width="1" fill="none" fill-rule="evenodd">
        <g id="Home" transform="translate(-256.000000, -1368.000000)" fill="#EA3E3C" fill-rule="nonzero">
            <g id="Group-Copy" transform="translate(0.000000, 1149.000000)">
                <g id="Group-22" transform="translate(168.000000, 177.000000)">
                    <g id="Group-5" transform="translate(90.000000, 40.000000)">
                        <g id="corazon" transform="translate(36.530210, 18.900490)">
                            <path d="M76.6083,7.47189431 C64.1751,-4.99770732 51.8469,0.451219512 41.9784,9.34595935 C32.1048,0.451219512 19.8792,-5.09517073 7.3461,7.47189431 C-2.4252,17.2642602 -2.4723,33.0006911 7.3461,42.7404146 C41.871,73.8811789 41.8629,73.8258293 41.8629,73.8258293 C41.8629,73.8258293 41.9127,73.9284065 76.6056,42.7401138 C86.4294,33.0003902 86.3796,17.2642602 76.6083,7.47189431 Z M42.9418649,66.206559 C42.5660209,66.5412732 42.2166047,66.8521856 41.8926143,67.1402071 C41.5768289,66.8564134 41.2368006,66.5507421 40.8715683,66.2223232 C35.4872504,61.3807162 25.8148288,52.6653607 10.7879374,39.1114442 C3.03551332,31.3362199 3.0735392,18.8323604 10.8854389,11.0036192 C19.6451377,2.2201816 28.081086,3.55610526 38.6318099,13.0608395 C40.5342369,14.7746615 43.4239579,14.7742903 45.3259445,13.0599795 C55.8040416,3.61579366 64.3706602,2.27985209 73.0676018,11.0022564 C80.8812725,18.832773 80.9200666,31.3338699 73.1670686,39.1078833 C58.0913949,52.6605269 48.3701765,61.3722838 42.9418649,66.206559 Z" id="Path"></path>
                            <path d="M54.8976161,62.6479615 C42.3579877,73.8778382 42.332738,73.8258293 42.332738,73.8258293 C42.332738,73.8258293 42.340838,73.8811789 7.81593796,42.7404146 C-2.00246204,33.0006911 -1.95536204,17.2642602 7.81593796,7.47189431 C17.7878676,-2.52705956 27.5651329,-1.05920103 36.1179425,4.43845475 C35.0205945,5.35499288 33.9194615,6.36538015 32.815938,7.47189431 C23.044638,17.2642602 22.997538,33.0006911 32.815938,42.7404146 C42.7722474,51.7208052 49.8566773,58.1068228 54.8976161,62.6479615 Z M62.7671839,0.203040749 C64.9781756,0.337114422 67.2238236,0.888814527 69.4893845,1.94875888 C68.7978777,2.46698448 68.1169627,3.02833111 67.4473755,3.63184777 C65.9397072,2.27364847 64.3772191,1.12675266 62.7671839,0.203040749 Z" id="Combined-Shape" fill-opacity="0.204026442"></path>
                        </g>
                        <path d="M171.879287,21.6403731 C164.03453,13.720491 156.256023,17.1812959 150.029469,22.8306577 C143.799698,17.1812959 136.085926,13.6585886 128.178137,21.6403731 C122.012912,27.8598487 121.983194,37.8546089 128.178137,44.0406495 C149.961705,63.819243 149.956594,63.7840886 149.956594,63.7840886 C149.956594,63.7840886 149.988015,63.849239 171.877583,44.0404585 C178.075933,37.8544178 178.044512,27.8598487 171.879287,21.6403731 Z M149.981416,57.069989 C146.492073,53.9103445 140.564529,48.5334545 131.635289,40.4261035 C127.481152,36.1963095 127.512701,29.4139116 131.729124,25.160386 C136.432911,20.4125849 140.663477,21.0869821 146.670687,26.5345179 C148.57679,28.263035 151.483545,28.2626613 153.389204,26.5336542 C159.349913,21.1254931 163.661294,20.4486874 168.326945,25.1590188 L168.3283,25.160386 C172.544666,29.4138541 172.57695,36.1936735 168.423626,40.4227218 C159.453057,48.5404491 153.493352,53.918059 149.981416,57.069989 Z" id="Path" opacity="0.827938988" filter="url(#filter-1)" transform="translate(150.028925, 40.380366) rotate(-319.000000) translate(-150.028925, -40.380366) "></path>
                        <path d="M37.7441533,7.27453584 C32.2676248,1.71376755 26.8373462,4.14369438 22.4905069,8.11026755 C18.1414212,4.14369438 12.7563355,1.67030414 7.23580334,7.27453584 C2.93177834,11.6414017 2.91103191,18.6589993 7.23580334,23.0023895 C22.4431998,36.8894871 22.4396319,36.8648041 22.4396319,36.8648041 C22.4396319,36.8648041 22.4615676,36.910548 37.7429641,23.0022554 C42.0701141,18.6588651 42.0481783,11.6414017 37.7441533,7.27453584 Z M22.461133,30.1273836 C19.9570617,27.8453731 16.1257267,24.3493849 10.7079923,19.4020488 C8.40259182,17.0098001 8.42984493,13.185936 10.7968669,10.7843544 C13.4057906,8.13587581 15.4598056,8.46519052 19.121167,11.8045264 C21.03041,13.5458469 23.952002,13.5454711 25.860797,11.8036595 C29.4891406,8.49272736 31.598231,8.15973596 34.181739,10.7829834 C36.5498377,13.185658 36.5777809,17.0070974 34.2738181,19.3988299 C28.8304115,24.3530171 24.9791636,27.8498901 22.461133,30.1273836 Z" id="Path" opacity="0.827938988" filter="url(#filter-2)" transform="translate(22.490127, 20.432403) rotate(-372.000000) translate(-22.490127, -20.432403) "></path>
                    </g>
                </g>
            </g>
        </g>
    </g>
</svg>