<?xml version="1.0" encoding="UTF-8"?>
<svg width="160px" height="44px" viewBox="0 0 160 44" version="1.1" xmlns="http://www.w3.org/2000/svg" xmlns:xlink="http://www.w3.org/1999/xlink">
    <!-- Generator: sketchtool 54.1 (76490) - https://sketchapp.com -->
    <title>2814328F-6C4F-4A61-A26E-F40698092D45</title>
    <desc>Created with sketchtool.</desc>
    <g id="Page-1" stroke="none" stroke-width="1" fill="none" fill-rule="evenodd">
        <g id="Home" transform="translate(-165.000000, -18.000000)" fill="#FFFFFF">
            <path d="M248.103491,44.0493124 L247.912787,43.9726654 C247.912787,43.9726654 249.968296,39.7282116 251.386522,34.2530078 C251.436208,34.1538944 251.484815,34.0547809 251.484815,33.9077444 C253.051019,27.9859853 255.742731,25.7651895 258.189251,25.0757516 C260.732984,24.4342368 264.306091,24.8775246 265.67571,27.7398353 C266.89843,30.1566797 266.165014,33.3141525 265.82261,33.4121769 C265.333306,33.5624809 265.333306,32.968889 265.333306,32.968889 C265.528811,31.8840864 265.577417,30.9474094 265.480205,30.2056919 C265.284699,28.4303623 263.277797,26.7519678 261.46856,27.9859853 C259.949882,28.9727636 260.195074,31.2425716 261.075389,33.7596187 C263.91292,39.6290981 267.093936,48.7573422 264.109505,55.3685391 C265.431598,55.6168674 269.34495,55.8140052 274.092171,47.2281625 C277.615592,41.0123304 279.915212,31.6869485 289.015402,33.0179012 C290.728506,33.2651404 293.762623,34.4501457 295.278061,36.5206375 C300.611799,35.5839605 306.043829,35.7810983 311.671365,35.0905713 C316.416426,34.4501457 321.995355,32.4754999 323.56048,27.0972313 C324.344663,24.237099 322.043962,18.2663277 318.032317,19.6473817 C316.808517,20.0416574 315.193706,21.522914 316.270607,22.9529802 C316.661618,23.4953815 317.296741,23.8896572 317.983711,23.594495 C317.983711,23.594495 318.032317,23.594495 318.032317,23.5443937 C318.814339,23.150118 319.744341,23.1011058 320.282251,23.9397585 C320.772635,24.6313746 320.57605,25.618153 319.89124,26.0614408 C318.864026,26.80098 317.494407,25.9623273 316.661618,25.3709138 C316.074021,24.9766381 315.487504,24.3852246 315.096493,23.7916328 C313.578895,21.6220275 315.291999,19.253106 317.44364,18.4144534 C322.239467,16.2426697 326.056686,23.1011058 324.735674,27.4936853 C323.071176,33.1170147 317.296741,35.5349483 311.818264,36.2254753 C306.533133,36.8680793 301.248002,36.9170915 295.818132,37.6076185 C295.915345,37.9038698 295.963951,38.199032 296.013638,38.5442955 C296.356042,40.7650913 294.740151,43.5773006 292.243945,43.1340127 C289.701292,42.6885466 290.190596,39.4809725 291.706034,38.0509063 C292.342238,37.508505 293.175026,37.0652171 294.006735,36.8680793 C294.006735,36.8680793 292.685722,35.238697 290.337495,34.54817 C275.413184,30.0085541 278.055209,58.5761132 263.375009,56.7517714 C263.375009,56.7517714 261.859571,59.7121064 258.238938,61.1911847 L258.189251,61.1911847 C258.189251,61.1911847 258.189251,61.1911847 258.189251,61.2401969 C254.372032,62.6234292 249.137668,62.4252022 247.424564,58.0337119 C246.054944,53.9384729 248.059687,48.263953 252.562796,46.636749 C255.938237,45.747995 258.336151,48.6593178 259.70577,51.5205393 C259.901275,46.4396112 257.79716,41.5046304 256.280642,36.5206375 C253.834122,29.7123027 257.944059,26.6528543 257.944059,26.6528543 C255.009315,28.1341109 253.540323,31.7849729 253.002413,33.611493 C252.291867,36.2303206 251.502389,38.8491482 250.6596,41.0694633 L251,41.0694633 C251,41.0694633 247.212043,50.1389313 242.932129,56.3491668 C241.062042,59.0103855 238.012563,63.6919978 233.978084,61.3756714 C227.533779,55.8073488 232.059128,42.5969984 234.715476,35.6480191 C235.502824,33.5786659 236.044736,32.1980091 235.946997,32.0010833 C235.551694,31.4592653 234.421171,33.4296115 234.421171,33.4296115 C232.107998,37.3246086 229.500519,41.0694633 226.845257,45.1113387 C225.663692,46.6889213 223.598126,49.9909649 221.236083,50.3358571 C219.219386,50.6317898 218.235473,48.6592676 218.530864,46.4919955 C219.760213,42.2521062 221.138343,38.014393 222.318821,33.7755917 C222.613127,33.1336788 221.924605,32.5918608 221.383778,33.1336788 C220.745212,33.7266323 219.415952,35.6969785 211.39695,48.166409 C208.937167,51.7643854 207.658949,51.8623043 206.870515,51.6653784 C203.426819,50.5817424 204.903775,45.7510757 204.903775,45.7510757 C204.903775,45.7510757 206.034298,42.4000726 207.263646,38.6541299 C203.279124,41.4143555 197.768775,41.4633149 194.276209,37.5215344 C188.865772,38.6051705 183.55199,38.9011032 177.893946,39.9368678 C172.630119,40.9214969 164.611117,44.8643654 166.577858,51.8133448 C167.366292,53.9827929 169.628423,56.8909848 172.432467,55.7573013 C173.663988,55.2633548 175.187641,53.7369076 174.057119,52.3551628 C173.614032,51.8133448 172.924424,51.4194932 172.285858,51.7643854 C172.235902,51.8133448 172.235902,51.8133448 172.187032,51.8133448 C171.44964,52.3062034 170.515683,52.3551628 169.9249,51.616419 C169.382988,50.9266346 169.530683,49.9420055 170.220291,49.4491469 C171.203119,48.6592676 172.630119,49.4001874 173.516292,49.9420055 C174.105988,50.3358571 174.696771,50.8776751 175.138771,51.4194932 C176.812293,53.4899343 175.237597,55.9542272 173.123161,56.9399443 C169.87603,58.7623242 166.332423,55.3623617 165.398465,52.2071965 C163.036422,44.6674396 171.695075,39.9858272 177.69738,38.8020963 C182.962293,37.8163792 188.273904,37.373568 193.686513,36.4857698 C192.949121,35.0071941 193.194556,32.5918608 194.62047,31.4592653 C195.900861,30.4735481 198.261818,30.3244938 198.8526,32.3949349 C199.098035,33.6276253 198.606079,34.9092752 197.768775,35.745938 C197.130209,36.3867629 196.342861,36.7827906 195.506644,37.1276828 C198.753774,40.1827531 203.426819,39.737766 206.919385,37.2256017 C206.919385,37.2256017 208.05208,35.9929113 208.789472,33.9725175 C209.035993,33.478571 209.477994,32.9857124 210.411951,32.8877935 C210.559647,32.838834 210.758384,32.838834 213.462517,32.8877935 C213.462517,32.8877935 214.447516,32.8877935 213.659082,35.2541674 C211.791167,40.7746185 209.526864,46.7868402 209.526864,46.7868402 C209.526864,46.7868402 209.380254,47.7235979 210.215386,46.7868402 C213.709038,42.4979915 216.316517,37.5704939 219.857952,32.838834 C220.15443,32.4928539 223.549256,28.2061811 225.761432,29.7337163 C226.452126,30.2755343 226.944082,31.6561911 225.959083,35.0071941 C226.648691,32.9857124 223.006258,43.4847967 222.367691,46.6399619 C222.318821,47.0338135 222.515387,48.0184427 223.153953,47.3787057 C226.599821,44.0766621 230.337823,36.9797164 233.142953,32.6408202 C233.142953,32.6408202 236.832084,26.1846994 239.931519,28.5021139 C241.308564,29.5357025 241.455173,30.8673998 241.160868,32.0500427 C241.062042,32.6408202 240.816607,33.2326857 238.110303,41.8092951 C236.241302,48.3143754 234.371215,57.3337959 237.913737,57.8266545 C240.798568,57.2394588 243.312282,54.2524848 248.103491,44.0493124 Z M194.817036,36.1408776 C196.097426,35.8449449 197.47447,34.9582347 197.719905,33.478571 C198.064166,32.0010833 196.539427,31.4592653 195.360034,32.3949349 C194.325079,33.1826383 194.227339,34.9582347 194.817036,36.0908302 C194.817036,36.1408776 194.817036,36.1408776 194.817036,36.1408776 Z M294.642938,37.8537685 C293.370532,38.199032 291.951226,38.889559 291.608822,40.3708156 C291.315023,41.8008818 292.539903,42.4914088 293.859836,41.6037439 C294.935657,40.8642048 295.278061,38.9886725 294.642938,37.8537685 Z M259.216466,54.3327486 C257.650261,52.7545568 257.454755,50.287611 255.400327,48.7573422 C250.604499,46.6857612 247.668676,57.7864727 253.051019,57.7864727 C255.595832,57.7864727 258.238938,56.6526579 259.216466,54.3327486 Z" id="Combined-Shape"></path>
        </g>
    </g>
</svg>
