<?xml version="1.0" encoding="UTF-8"?>
<svg width="133px" height="200px" viewBox="0 0 133 200" version="1.1" xmlns="http://www.w3.org/2000/svg" xmlns:xlink="http://www.w3.org/1999/xlink">
    <!-- Generator: sketchtool 54.1 (76490) - https://sketchapp.com -->
    <title>DB09E66B-C207-4057-85D0-E3B089D840AF</title>
    <desc>Created with sketchtool.</desc>
    <g id="Page-1" stroke="none" stroke-width="1" fill="none" fill-rule="evenodd" opacity="0.146809896">
        <g id="Home" transform="translate(-1307.000000, -2319.000000)" fill="#FFFFFF">
            <g id="Group-33" transform="translate(0.000000, 2218.000000)">
                <g id="Bitmap">
                    <path d="M1826.28116,-38.7009595 L1824.49177,-39.3773206 C1824.49177,-39.3773206 1839.69726,-68.9056624 1850.18849,-106.996238 C1850.55605,-107.685763 1850.91561,-108.375288 1850.91561,-109.39821 C1862.50151,-150.595437 1882.41327,-166.045345 1900.51125,-170.841711 C1919.32835,-175.304681 1945.76018,-172.220761 1955.89185,-152.307884 C1964.93684,-135.494081 1959.51144,-113.527783 1956.97853,-112.845835 C1953.35893,-111.800182 1953.35893,-115.929755 1953.35893,-115.929755 C1954.80517,-123.476645 1955.16473,-129.993035 1954.44561,-135.153107 C1952.99937,-147.503941 1938.15344,-159.180403 1924.76973,-150.595437 C1913.5354,-143.730496 1915.34919,-127.939615 1921.86127,-110.428709 C1942.85172,-69.5951875 1966.38308,-6.09068835 1944.30595,39.9029054 C1954.08605,41.6305067 1983.03482,43.0019796 2018.15208,-16.7290748 C2044.21636,-59.9721456 2061.22765,-124.848118 2128.54573,-115.588781 C2141.2183,-113.868757 2163.66299,-105.624765 2174.87334,-91.2205115 C2214.32933,-97.736902 2254.51242,-96.3654291 2296.14176,-101.169373 C2331.24304,-105.624765 2372.51281,-119.362226 2384.09072,-156.778431 C2389.89166,-176.676154 2372.87238,-218.214355 2343.19649,-208.606468 C2334.14351,-205.863522 2322.19805,-195.558532 2330.16435,-185.609671 C2333.05683,-181.836226 2337.75511,-179.09328 2342.83693,-181.146701 C2342.83693,-181.146701 2343.19649,-181.146701 2343.19649,-181.495252 C2348.98145,-184.238198 2355.86108,-184.579172 2359.84024,-178.744729 C2363.46782,-173.933208 2362.01359,-167.068267 2356.94776,-163.984347 C2349.349,-158.839429 2339.21733,-164.673872 2333.05683,-168.788291 C2328.71012,-171.531236 2324.3714,-175.645655 2321.47892,-179.775228 C2310.25259,-194.869007 2322.92516,-211.349414 2338.84179,-217.183856 C2374.31862,-232.29279 2402.55625,-184.579172 2392.78414,-154.020331 C2380.47113,-114.899256 2337.75511,-98.0778759 2297.22844,-93.2739322 C2258.13202,-88.8033852 2219.0356,-88.4624113 2178.86848,-83.6584675 C2179.58761,-81.5974696 2179.94717,-79.5440488 2180.31472,-77.142077 C2182.84764,-61.6921696 2170.89419,-42.1278436 2152.42866,-45.2117633 C2133.61955,-48.3108374 2137.23915,-70.6256864 2148.4495,-80.5745478 C2153.15578,-84.3479926 2159.31628,-87.4319123 2165.46879,-88.8033852 C2165.46879,-88.8033852 2155.69668,-100.138874 2138.32582,-104.942818 C2027.92418,-136.52458 2047.4684,62.2177545 1938.87256,49.5259473 C1938.87256,49.5259473 1927.66221,70.1207723 1900.8788,80.4106077 L1900.51125,80.4106077 C1900.51125,80.4106077 1900.51125,80.4106077 1900.51125,80.7515816 C1872.27361,90.3746234 1833.55274,88.9955733 1820.88016,58.4443097 C1810.74849,29.954044 1825.57844,-9.52315919 1858.8899,-20.8434935 C1883.85951,-27.0264873 1901.59793,-6.7726362 1911.7296,13.1326638 C1913.17584,-22.2149664 1897.61078,-56.547252 1886.39243,-91.2205115 C1868.29446,-138.585578 1898.69746,-159.869928 1898.69746,-159.869928 C1876.98788,-149.564939 1866.1211,-124.16617 1862.14195,-111.459208 C1856.87676,-93.209129 1851.02568,-74.9590498 1844.77921,-59.4956112 L1847.73948,-59.4956112 C1847.73948,-59.4956112 1819.72621,3.56572726 1788.07476,46.7464039 C1774.24482,65.2502467 1751.69285,97.8021828 1721.85648,81.6964259 C1674.19859,42.9790638 1707.66512,-48.8744357 1727.30975,-97.1917065 C1733.13246,-111.580222 1737.14009,-121.180131 1736.41727,-122.549385 C1733.49387,-126.316725 1725.13326,-112.616619 1725.13326,-112.616619 C1708.02653,-85.5341342 1688.74332,-59.4956112 1669.10673,-31.3918597 C1660.36864,-20.422697 1645.09306,2.53689544 1627.62493,4.93498137 C1612.71076,6.992645 1605.43437,-6.72259092 1607.61889,-21.7919511 C1616.71036,-51.2725216 1626.90211,-80.7379623 1635.63216,-110.210968 C1637.80865,-114.674282 1632.71679,-118.441622 1628.71719,-114.674282 C1623.99477,-110.55139 1614.16443,-96.8512842 1554.86111,-10.1495087 C1536.67016,14.8677474 1527.21729,15.548592 1521.38655,14.1793379 C1495.91921,6.64465777 1506.84182,-26.9436751 1506.84182,-26.9436751 C1506.84182,-26.9436751 1515.20243,-50.2436898 1524.29389,-76.2897777 C1494.82695,-57.0975253 1454.076,-56.757103 1428.24726,-84.1648801 C1388.23519,-76.6302 1348.93791,-74.5725363 1307.09471,-67.3707136 C1268.16687,-60.5244431 1208.86356,-33.1091011 1223.40829,15.2081697 C1229.23903,30.2926597 1245.96828,50.5137439 1266.70517,42.6310766 C1275.81269,39.1965939 1287.08064,28.5829833 1278.72003,18.9755097 C1275.44325,15.2081697 1270.34336,12.4696614 1265.62094,14.8677474 C1265.2515,15.2081697 1265.2515,15.2081697 1264.89009,15.2081697 C1259.43682,18.6350874 1252.52988,18.9755097 1248.16084,13.8389156 C1244.1532,9.0427437 1245.24546,2.19647315 1250.34536,-1.2304446 C1257.61371,-6.72259092 1268.16687,-1.57086689 1274.72043,2.19647315 C1279.08144,4.93498137 1283.45048,8.70232141 1286.71923,12.4696614 C1299.09551,26.865742 1287.45008,44.0003307 1271.81309,50.8541662 C1247.79943,63.5254404 1221.59321,39.8850034 1214.68627,17.9466779 C1197.21813,-34.4783552 1261.2519,-67.0302913 1305.64104,-75.2609459 C1344.5769,-82.1147814 1383.85812,-85.1937119 1423.88625,-91.3667028 C1418.43298,-101.647456 1420.24806,-118.441622 1430.79319,-126.316725 C1440.26212,-133.17056 1457.72223,-134.206957 1462.09127,-119.810877 C1463.90635,-111.2398 1460.26816,-102.328301 1454.076,-96.5108619 C1449.35358,-92.0551123 1443.53087,-89.3014742 1437.34675,-86.9033883 C1461.36042,-65.6610372 1495.91921,-68.7550976 1521.74796,-86.2225437 C1521.74796,-86.2225437 1530.12463,-94.7936205 1535.5779,-108.841714 C1537.40101,-112.276196 1540.66976,-115.703114 1547.5767,-116.383959 C1548.66896,-116.724381 1550.13869,-116.724381 1570.1367,-116.383959 C1570.1367,-116.383959 1577.42111,-116.383959 1571.59037,-99.9302147 C1557.77649,-61.5457099 1541.03117,-19.7418524 1541.03117,-19.7418524 C1541.03117,-19.7418524 1539.94694,-13.2284392 1546.12303,-19.7418524 C1571.95981,-49.5628452 1591.24302,-83.8244578 1617.43317,-116.724381 C1619.62573,-119.130032 1644.73165,-148.935895 1661.09146,-138.314719 C1666.19939,-134.547379 1669.83758,-124.947471 1662.55316,-101.647456 C1667.65306,-115.703114 1640.71599,-42.7014448 1635.99357,-20.7631193 C1635.63216,-18.024611 1637.08583,-11.1783405 1641.80825,-15.6265251 C1667.29165,-38.5861175 1694.93547,-87.9322201 1715.68039,-118.1012 C1715.68039,-118.1012 1742.9628,-162.991553 1765.88421,-146.878231 C1776.06793,-139.691538 1777.15216,-130.432052 1774.97567,-122.208963 C1774.24482,-118.1012 1772.42974,-113.985873 1752.41567,-54.3514521 C1738.59376,-9.12067685 1724.76382,53.5926744 1750.962,57.0195922 C1772.28878,52.9381798 1790.87296,32.1825697 1826.28116,-38.7009595 Z M1432.24686,-93.7647887 C1441.71579,-95.8224523 1451.89951,-101.987878 1453.71459,-112.276196 C1456.26052,-122.549385 1444.98454,-126.316725 1436.26252,-119.810877 C1428.60867,-114.33386 1427.88585,-101.987878 1432.24686,-94.1127759 C1432.24686,-93.7647887 1432.24686,-93.7647887 1432.24686,-93.7647887 Z M2170.17506,-81.9460207 C2160.76252,-79.5440488 2150.2633,-74.7401051 2147.73038,-64.4351154 C2145.55702,-54.486254 2154.618,-49.6823103 2164.38211,-55.8577269 C2172.34043,-61.0026446 2174.87334,-74.0505801 2170.17506,-81.9460207 Z M1908.11,32.6969898 C1896.5241,21.7176295 1895.07786,4.55527529 1879.88036,-6.09068835 C1844.40353,-20.5025196 1822.68596,56.7242857 1862.50151,56.7242857 C1881.3266,56.7242857 1900.8788,48.8364223 1908.11,32.6969898 Z" id="Combined-Shape" transform="translate(1803.239480, -67.014851) rotate(-28.000000) translate(-1803.239480, 67.014851) "></path>
                </g>
            </g>
        </g>
    </g>
</svg>