<?xml version="1.0" encoding="UTF-8"?>
<svg width="184px" height="136px" viewBox="0 0 184 136" version="1.1" xmlns="http://www.w3.org/2000/svg" xmlns:xlink="http://www.w3.org/1999/xlink">
    <!-- Generator: sketchtool 54.1 (76490) - https://sketchapp.com -->
    <title>BA994ED7-2ABF-4449-A230-B0E1ABBC3CCE</title>
    <desc>Created with sketchtool.</desc>
    <g id="Page-1" stroke="none" stroke-width="1" fill="none" fill-rule="evenodd" opacity="0.146809896">
        <g id="Home" transform="translate(0.000000, -2218.000000)" fill="#FFFFFF">
            <g id="Group-33" transform="translate(0.000000, 2218.000000)">
                <g id="Bitmap">
                    <path d="M-245.405688,307.266037 L-247.195083,306.589676 C-247.195083,306.589676 -231.989589,277.061334 -221.498357,238.970758 C-221.130804,238.281233 -220.771242,237.591708 -220.771242,236.568786 C-209.185342,195.371559 -189.273575,179.921652 -171.175601,175.125285 C-152.358501,170.662315 -125.92667,173.746235 -115.795,193.659112 C-106.750008,210.472915 -112.175405,232.439213 -114.708323,233.121161 C-118.327917,234.166814 -118.327917,230.037241 -118.327917,230.037241 C-116.881678,222.490352 -116.522115,215.973961 -117.24124,210.813889 C-118.68748,198.463056 -133.533412,186.786593 -146.917124,195.371559 C-158.151451,202.236501 -156.337659,218.027382 -149.825584,235.538287 C-128.83513,276.371809 -105.303768,339.876308 -127.3809,385.869902 C-117.600802,387.597503 -88.6520336,388.968976 -53.534772,329.237922 C-27.4704928,285.994851 -10.4591959,221.118879 56.8588766,230.378215 C69.5314538,232.098239 91.9761381,240.342231 103.186495,254.746485 C142.642476,248.230094 182.825572,249.601567 224.454909,244.797624 C259.55619,240.342231 300.825963,226.60477 312.403873,189.188565 C318.204813,169.290842 301.185526,127.752641 271.509642,137.360529 C262.45666,140.103474 250.511198,150.408464 258.477502,160.357325 C261.369982,164.13077 266.068264,166.873716 271.15008,164.820295 C271.15008,164.820295 271.509642,164.820295 271.509642,164.471744 C277.294602,161.728798 284.174229,161.387824 288.153386,167.222267 C291.780971,172.033788 290.326741,178.89873 285.260906,181.982649 C277.662154,187.127567 267.530485,181.293124 261.369982,177.178706 C257.023272,174.43576 252.684553,170.321341 249.792073,166.191768 C238.565735,151.097989 251.238313,134.617583 267.154942,128.78314 C302.631766,113.674207 330.8694,161.387824 321.097293,191.946665 C308.784278,231.06774 266.068264,247.88912 225.541586,252.693064 C186.445167,257.163611 147.348748,257.504585 107.181633,262.308529 C107.900758,264.369527 108.26032,266.422948 108.627873,268.824919 C111.16079,284.274827 99.2073376,303.839153 80.7418105,300.755233 C61.9327016,297.656159 65.5522965,275.34131 76.7626532,265.392449 C81.4689256,261.619004 87.6294281,258.535084 93.7819404,257.163611 C93.7819404,257.163611 84.0098333,245.828122 66.638974,241.024179 C-43.7626649,209.442416 -24.2184506,408.184751 -132.814287,395.492944 C-132.814287,395.492944 -144.024644,416.087769 -170.808048,426.377604 L-171.175601,426.377604 C-171.175601,426.377604 -171.175601,426.377604 -171.175601,426.718578 C-199.413235,436.34162 -238.134111,434.96257 -250.806688,404.411306 C-260.938357,375.92104 -246.108406,336.443837 -212.796947,325.123503 C-187.827335,318.940509 -170.088923,339.19436 -159.957254,359.09966 C-158.511014,323.75203 -174.076071,289.419744 -185.294418,254.746485 C-203.392392,207.381418 -172.989393,186.097068 -172.989393,186.097068 C-194.698972,196.402058 -205.565747,221.800827 -209.544904,234.507788 C-214.810093,252.757867 -220.661171,271.007947 -226.907639,286.471385 L-223.94737,286.471385 C-223.94737,286.471385 -251.960635,349.532724 -283.612091,392.7134 C-297.442034,411.217243 -319.993998,443.769179 -349.830374,427.663422 C-397.488263,388.94606 -364.021727,297.092561 -344.377104,248.77529 C-338.554392,234.386774 -334.546761,224.786866 -335.26958,223.417612 C-338.192983,219.650272 -346.553593,233.350378 -346.553593,233.350378 C-363.660317,260.432862 -382.943531,286.471385 -402.580123,314.575137 C-411.318206,325.544299 -426.593788,348.503892 -444.061922,350.901978 C-458.976095,352.959641 -466.252476,339.244405 -464.067955,324.175045 C-454.976494,294.694475 -444.784742,265.229034 -436.05469,235.756028 C-433.878201,231.292714 -438.970061,227.525374 -442.969662,231.292714 C-447.692082,235.415606 -457.522425,249.115712 -516.825736,335.817488 C-535.016689,360.834744 -544.46956,361.515588 -550.300303,360.146334 C-575.767638,352.611654 -564.845034,319.023321 -564.845034,319.023321 C-564.845034,319.023321 -556.484424,295.723307 -547.392963,269.677219 C-576.859898,288.869471 -617.610846,289.209893 -643.439591,261.802116 C-683.451657,269.336796 -722.748935,271.39446 -764.592144,278.596283 C-803.519981,285.442553 -862.823292,312.857895 -848.278561,361.175166 C-842.447818,376.259656 -825.718566,396.48074 -804.981682,388.598073 C-795.874159,385.16359 -784.606208,374.54998 -792.966819,364.942506 C-796.2436,361.175166 -801.343492,358.436658 -806.065911,360.834744 C-806.435352,361.175166 -806.435352,361.175166 -806.796762,361.175166 C-812.250032,364.602084 -819.156973,364.942506 -823.526014,359.805912 C-827.533646,355.00974 -826.441385,348.16347 -821.341493,344.736552 C-814.073143,339.244405 -803.519981,344.396129 -796.966419,348.16347 C-792.605409,350.901978 -788.236368,354.669318 -784.967618,358.436658 C-772.591345,372.832738 -784.236767,389.967327 -799.873759,396.821163 C-823.887424,409.492437 -850.093641,385.852 -857.000581,363.913674 C-874.468715,311.488641 -810.434953,278.936705 -766.045814,270.706051 C-727.109945,263.852215 -687.82873,260.773284 -647.800601,254.600294 C-653.253871,244.31954 -651.438791,227.525374 -640.89366,219.650272 C-631.424727,212.796436 -613.964624,211.760039 -609.595583,226.15612 C-607.780503,234.727197 -611.418694,243.638696 -617.610846,249.456134 C-622.333266,253.911884 -628.155977,256.665522 -634.340098,259.063608 C-610.326434,280.305959 -575.767638,277.211899 -549.938893,259.744453 C-549.938893,259.744453 -541.56222,251.173376 -536.10895,237.125283 C-534.285839,233.6908 -531.017089,230.263882 -524.110149,229.583038 C-523.017888,229.242615 -521.548156,229.242615 -501.550154,229.583038 C-501.550154,229.583038 -494.265741,229.583038 -500.096484,246.036782 C-513.910365,284.421286 -530.655679,326.225144 -530.655679,326.225144 C-530.655679,326.225144 -531.739908,332.738557 -525.563819,326.225144 C-499.727043,296.404151 -480.443829,262.142539 -454.253675,229.242615 C-452.061123,226.836964 -426.955198,197.031101 -410.595387,207.652277 C-405.487463,211.419617 -401.849273,221.019526 -409.133685,244.31954 C-404.033793,230.263882 -430.970861,303.265552 -435.69328,325.203877 C-436.05469,327.942385 -434.60102,334.788656 -429.8786,330.340471 C-404.395203,307.380879 -376.751379,258.034776 -356.006464,227.865796 C-356.006464,227.865796 -328.724049,182.975443 -305.802645,199.088765 C-295.618923,206.275458 -294.534694,215.534944 -296.711184,223.758034 C-297.442034,227.865796 -299.257114,231.981123 -319.271178,291.615544 C-333.093091,336.84632 -346.923034,399.559671 -320.724848,402.986589 C-299.398074,398.905176 -280.813891,378.149566 -245.405688,307.266037 Z M-639.43999,252.202208 C-629.971057,250.144544 -619.787336,243.979118 -617.972256,233.6908 C-615.426326,223.417612 -626.702307,219.650272 -635.424327,226.15612 C-643.078181,231.633136 -643.801,243.979118 -639.43999,251.85422 C-639.43999,252.202208 -639.43999,252.202208 -639.43999,252.202208 Z M98.4882128,264.020976 C89.075668,266.422948 78.5764458,271.226891 76.0435284,281.531881 C73.8701735,291.480742 82.9311461,296.284686 92.6952629,290.109269 C100.653577,284.964352 103.186495,271.916416 98.4882128,264.020976 Z M-163.576849,378.663986 C-175.162748,367.684626 -176.608988,350.522272 -191.806492,339.876308 C-227.283316,325.464477 -249.000886,402.691282 -209.185342,402.691282 C-190.360253,402.691282 -170.808048,394.803419 -163.576849,378.663986 Z" id="Combined-Shape" transform="translate(-268.447370, 278.952145) rotate(-28.000000) translate(268.447370, -278.952145) "></path>
                </g>
            </g>
        </g>
    </g>
</svg>