<?xml version="1.0" encoding="UTF-8"?>
<svg width="446px" height="238px" viewBox="0 0 446 238" version="1.1" xmlns="http://www.w3.org/2000/svg" xmlns:xlink="http://www.w3.org/1999/xlink">
    <!-- Generator: sketchtool 54.1 (76490) - https://sketchapp.com -->
    <title>DC160EE7-28A7-4511-B334-299DEBAA6027</title>
    <desc>Created with sketchtool.</desc>
    <g id="Page-1" stroke="none" stroke-width="1" fill="none" fill-rule="evenodd">
        <g id="404-error" transform="translate(-493.000000, -188.000000)" fill-rule="nonzero">
            <g id="Group" transform="translate(493.670898, 188.667969)">
                <path d="M20,174.6875 L91.3378906,21.7578125 L125.46875,21.7578125 L53.2519531,174.6875 L109.0625,174.6875 L109.0625,113.310547 L139.677734,113.310547 L139.677734,174.6875 L156.669922,174.6875 L156.669922,203.544922 L139.677734,203.544922 L139.677734,235.332031 L109.0625,235.332031 L109.0625,203.544922 L20,203.544922 L20,174.6875 Z M262.285156,83.28125 C261.699216,61.8944243 251.68955,51.0058613 232.255859,50.6152344 C212.724512,51.0058613 202.763674,61.8944243 202.373047,83.28125 L202.373047,173.808594 C202.763674,195.390733 212.724512,206.279296 232.255859,206.474609 C251.68955,206.279296 261.699216,195.390733 262.285156,173.808594 L262.285156,83.28125 Z M171.757812,81.3769531 C171.953126,61.650292 178.251891,46.464897 190.654297,35.8203125 C202.275449,25.2733848 216.142498,20 232.255859,20 C248.857505,20 262.968692,25.2733848 274.589844,35.8203125 C286.406309,46.464897 292.509764,61.650292 292.900391,81.3769531 L292.900391,175.566406 C292.509764,195.195411 286.406309,210.331978 274.589844,220.976562 C262.968692,231.52349 248.857505,236.89453 232.255859,237.089844 C216.142498,236.89453 202.275449,231.52349 190.654297,220.976562 C178.251891,210.331978 171.953126,195.195411 171.757812,175.566406 L171.757812,81.3769531 Z M307.988281,174.6875 L379.326172,21.7578125 L413.457031,21.7578125 L341.240234,174.6875 L397.050781,174.6875 L397.050781,113.310547 L427.666016,113.310547 L427.666016,174.6875 L444.658203,174.6875 L444.658203,203.544922 L427.666016,203.544922 L427.666016,235.332031 L397.050781,235.332031 L397.050781,203.544922 L307.988281,203.544922 L307.988281,174.6875 Z" id="404" fill="#55A6AC"></path>
                <path d="M0,154.6875 L71.3378906,1.7578125 L105.46875,1.7578125 L33.2519531,154.6875 L89.0625,154.6875 L89.0625,93.3105469 L119.677734,93.3105469 L119.677734,154.6875 L136.669922,154.6875 L136.669922,183.544922 L119.677734,183.544922 L119.677734,215.332031 L89.0625,215.332031 L89.0625,183.544922 L0,183.544922 L0,154.6875 Z M242.285156,63.28125 C241.699216,41.8944243 231.68955,31.0058613 212.255859,30.6152344 C192.724512,31.0058613 182.763674,41.8944243 182.373047,63.28125 L182.373047,153.808594 C182.763674,175.390733 192.724512,186.279296 212.255859,186.474609 C231.68955,186.279296 241.699216,175.390733 242.285156,153.808594 L242.285156,63.28125 Z M151.757812,61.3769531 C151.953126,41.650292 158.251891,26.464897 170.654297,15.8203125 C182.275449,5.27338477 196.142498,0 212.255859,0 C228.857505,0 242.968692,5.27338477 254.589844,15.8203125 C266.406309,26.464897 272.509764,41.650292 272.900391,61.3769531 L272.900391,155.566406 C272.509764,175.195411 266.406309,190.331978 254.589844,200.976562 C242.968692,211.52349 228.857505,216.89453 212.255859,217.089844 C196.142498,216.89453 182.275449,211.52349 170.654297,200.976562 C158.251891,190.331978 151.953126,175.195411 151.757812,155.566406 L151.757812,61.3769531 Z M287.988281,154.6875 L359.326172,1.7578125 L393.457031,1.7578125 L321.240234,154.6875 L377.050781,154.6875 L377.050781,93.3105469 L407.666016,93.3105469 L407.666016,154.6875 L424.658203,154.6875 L424.658203,183.544922 L407.666016,183.544922 L407.666016,215.332031 L377.050781,215.332031 L377.050781,183.544922 L287.988281,183.544922 L287.988281,154.6875 Z" id="404" fill="#EA3E3C"></path>
                <path d="M10,164.6875 L81.3378906,11.7578125 L115.46875,11.7578125 L43.2519531,164.6875 L99.0625,164.6875 L99.0625,103.310547 L129.677734,103.310547 L129.677734,164.6875 L146.669922,164.6875 L146.669922,193.544922 L129.677734,193.544922 L129.677734,225.332031 L99.0625,225.332031 L99.0625,193.544922 L10,193.544922 L10,164.6875 Z M252.285156,73.28125 C251.699216,51.8944243 241.68955,41.0058613 222.255859,40.6152344 C202.724512,41.0058613 192.763674,51.8944243 192.373047,73.28125 L192.373047,163.808594 C192.763674,185.390733 202.724512,196.279296 222.255859,196.474609 C241.68955,196.279296 251.699216,185.390733 252.285156,163.808594 L252.285156,73.28125 Z M161.757812,71.3769531 C161.953126,51.650292 168.251891,36.464897 180.654297,25.8203125 C192.275449,15.2733848 206.142498,10 222.255859,10 C238.857505,10 252.968692,15.2733848 264.589844,25.8203125 C276.406309,36.464897 282.509764,51.650292 282.900391,71.3769531 L282.900391,165.566406 C282.509764,185.195411 276.406309,200.331978 264.589844,210.976562 C252.968692,221.52349 238.857505,226.89453 222.255859,227.089844 C206.142498,226.89453 192.275449,221.52349 180.654297,210.976562 C168.251891,200.331978 161.953126,185.195411 161.757812,165.566406 L161.757812,71.3769531 Z M297.988281,164.6875 L369.326172,11.7578125 L403.457031,11.7578125 L331.240234,164.6875 L387.050781,164.6875 L387.050781,103.310547 L417.666016,103.310547 L417.666016,164.6875 L434.658203,164.6875 L434.658203,193.544922 L417.666016,193.544922 L417.666016,225.332031 L387.050781,225.332031 L387.050781,193.544922 L297.988281,193.544922 L297.988281,164.6875 Z" id="404" fill="#FAFAFA"></path>
            </g>
        </g>
    </g>
</svg>