<?xml version="1.0" encoding="UTF-8"?>
<svg width="27px" height="27px" viewBox="0 0 27 27" version="1.1" xmlns="http://www.w3.org/2000/svg" xmlns:xlink="http://www.w3.org/1999/xlink">
    <!-- Generator: sketchtool 54.1 (76490) - https://sketchapp.com -->
    <title>0572C239-F3C6-4122-AFCA-C7897D83C566</title>
    <desc>Created with sketchtool.</desc>
    <g id="Symbols" stroke="none" stroke-width="1" fill="none" fill-rule="evenodd">
        <g id="Icon/Flecha" fill="#FFFFFF" fill-rule="nonzero">
            <path d="M23.7139799,12.7833132 L17.4647355,6.29681797 C17.0834535,5.90106068 16.4650907,5.90106068 16.0838087,6.29681797 C15.7024486,6.69265634 15.7024486,7.33433288 16.0838087,7.73017126 L20.6661453,12.486475 L3.97644444,12.486475 C3.43721276,12.486475 3,12.9402864 3,13.4999899 C3,14.0596122 3.43721276,14.5135047 3.97644444,14.5135047 L20.6661453,14.5135047 L16.0839649,19.2698085 C15.7026048,19.6656468 15.7026048,20.3073234 16.0839649,20.7031618 C16.2745669,20.9009188 16.5245367,21 16.7744283,21 C17.02432,21 17.2742116,20.9009188 17.4648917,20.7031618 L23.7139799,14.2166665 C24.09534,13.8208281 24.09534,13.1791516 23.7139799,12.7833132 Z" id="Path-Copy"></path>
        </g>
    </g>
</svg>