<?xml version="1.0" encoding="UTF-8"?>
<svg width="18px" height="18px" viewBox="0 0 18 18" version="1.1" xmlns="http://www.w3.org/2000/svg" xmlns:xlink="http://www.w3.org/1999/xlink">
    <!-- Generator: sketchtool 54.1 (76490) - https://sketchapp.com -->
    <title>1B354B8F-C156-41E5-8CF5-B907D7145FB9</title>
    <desc>Created with sketchtool.</desc>
    <g id="Symbols" stroke="none" stroke-width="1" fill="none" fill-rule="evenodd">
        <g id="Footer" transform="translate(-1184.000000, -45.000000)" fill="#FFFFFF" fill-rule="nonzero">
            <g id="Group-2">
                <g id="Instagram" transform="translate(1174.000000, 35.000000)">
                    <path d="M22.3018293,10.195122 C25.3406128,10.195122 27.804878,12.6593872 27.804878,15.6981707 L27.804878,22.3018293 C27.804878,25.3406128 25.3406128,27.804878 22.3018293,27.804878 L15.6981707,27.804878 C12.6593872,27.804878 10.195122,25.3406128 10.195122,22.3018293 L10.195122,15.6981707 C10.195122,12.6593872 12.6593872,10.195122 15.6981707,10.195122 L22.3018293,10.195122 Z M26.1539634,22.3018293 L26.1539634,15.6981707 C26.1539634,13.5739939 24.4260061,11.8460366 22.3018293,11.8460366 L15.6981707,11.8460366 C13.5739939,11.8460366 11.8460366,13.5739939 11.8460366,15.6981707 L11.8460366,22.3018293 C11.8460366,24.4260061 13.5739939,26.1539634 15.6981707,26.1539634 L22.3018293,26.1539634 C24.4260061,26.1539634 26.1539634,24.4260061 26.1539634,22.3018293 Z M19,14.597561 C21.431247,14.597561 23.402439,16.568753 23.402439,19 C23.402439,21.431247 21.431247,23.402439 19,23.402439 C16.568753,23.402439 14.597561,21.431247 14.597561,19 C14.597561,16.568753 16.568753,14.597561 19,14.597561 Z M19,21.7515244 C20.5166402,21.7515244 21.7515244,20.5166402 21.7515244,19 C21.7515244,17.4822591 20.5166402,16.2484756 19,16.2484756 C17.4833598,16.2484756 16.2484756,17.4822591 16.2484756,19 C16.2484756,20.5166402 17.4833598,21.7515244 19,21.7515244 Z M23.612079,15.2264808 C23.1489552,15.2264808 22.7735192,14.8510448 22.7735192,14.387921 C22.7735192,13.9247972 23.1489552,13.5493612 23.612079,13.5493612 C24.0752028,13.5493612 24.4506388,13.9247972 24.4506388,14.387921 C24.4506388,14.8510448 24.0752028,15.2264808 23.612079,15.2264808 Z" id="Combined-Shape"></path>
                </g>
            </g>
        </g>
    </g>
</svg>