<?xml version="1.0" encoding="UTF-8"?>
<svg width="20px" height="16px" viewBox="0 0 20 16" version="1.1" xmlns="http://www.w3.org/2000/svg" xmlns:xlink="http://www.w3.org/1999/xlink">
    <!-- Generator: sketchtool 54.1 (76490) - https://sketchapp.com -->
    <title>99D8962F-0AF5-4B7C-A116-32989F54B69F</title>
    <desc>Created with sketchtool.</desc>
    <g id="Symbols" stroke="none" stroke-width="1" fill="none" fill-rule="evenodd">
        <g id="Footer" transform="translate(-1121.000000, -47.000000)" fill="#FFFFFF">
            <g id="Group-2">
                <g id="Twitter" transform="translate(1111.000000, 35.000000)">
                    <path d="M19.5892205,16.2262434 L19.6304062,16.8986282 L18.9439788,16.8162953 C16.4453831,16.5006862 14.262544,15.4303594 12.40919,13.6327594 L11.5031058,12.7408204 L11.2697205,13.399483 C10.7754928,14.8677518 11.0912494,16.4183533 12.1208905,17.4612358 C12.6700324,18.0375656 12.5464755,18.1198984 11.5992057,17.776845 C11.2697205,17.6670679 10.981421,17.584735 10.9539639,17.6259015 C10.8578641,17.7219564 11.1873492,18.9706709 11.4481916,19.4646679 C11.8051339,20.1507748 12.5327469,20.8231595 13.3290027,21.2211015 L14.0017016,21.5367107 L13.2054458,21.5504328 C12.4366471,21.5504328 12.40919,21.564155 12.4915613,21.8523199 C12.7661322,22.7442588 13.8506875,23.6910863 15.0587997,24.1027505 L15.9099697,24.3909153 L15.1686281,24.8300238 C14.0703443,25.4612421 12.7798608,25.8180177 11.4893773,25.8454619 C10.8715926,25.8591841 10.3636364,25.9140726 10.3636364,25.955239 C10.3636364,26.0924604 12.0385192,26.8609001 13.0132461,27.1627872 C15.9374268,28.0547261 19.4107494,27.6705063 22.0191735,26.147349 C23.8725275,25.0633001 25.7258814,22.9089245 26.59078,20.8231595 C27.0575506,19.7116664 27.5243212,17.68079 27.5243212,16.7065182 C27.5243212,16.0752999 27.5655069,15.9929671 28.3343055,15.2382495 C28.7873476,14.7991411 29.2129326,14.3188663 29.2953039,14.1816449 C29.4325894,13.9209243 29.4188608,13.9209243 28.7187049,14.1542006 C27.5517783,14.5658647 27.3870357,14.5109762 27.9636347,13.89348 C28.3892197,13.4543716 28.897176,12.6584876 28.897176,12.4252113 C28.897176,12.3840448 28.6912478,12.4526555 28.4578625,12.5761548 C28.2107486,12.7133761 27.6616067,12.9192082 27.2497503,13.0427075 L26.5084087,13.2759838 L25.8357098,12.8231533 C25.465039,12.5761548 24.9433542,12.301712 24.6687833,12.2193792 C23.9686273,12.0272693 22.8978006,12.0547135 22.2662874,12.2742677 C20.5502189,12.8917639 19.4656636,14.4835319 19.5892205,16.2262434 Z" id="Shape"></path>
                </g>
            </g>
        </g>
    </g>
</svg>