<?xml version="1.0" encoding="UTF-8"?>
<svg width="18px" height="14px" viewBox="0 0 18 14" version="1.1" xmlns="http://www.w3.org/2000/svg" xmlns:xlink="http://www.w3.org/1999/xlink">
    <!-- Generator: sketchtool 54.1 (76490) - https://sketchapp.com -->
    <title>BEB36EF7-4D6A-4811-A892-C3B88A377EAD</title>
    <desc>Created with sketchtool.</desc>
    <g id="Symbols" stroke="none" stroke-width="1" fill="none" fill-rule="evenodd">
        <g id="Footer" transform="translate(-1247.000000, -47.000000)" fill="#FFFFFF">
            <g id="Group-2">
                <g id="Youtubr" transform="translate(1237.000000, 35.000000)">
                    <path d="M27.6893333,15.3990019 C27.6893333,15.3990019 27.8666667,16.8566223 27.8666667,18.3136801 L27.8666667,19.6801292 C27.8666667,21.1377496 27.6893333,22.5948075 27.6893333,22.5948075 C27.6893333,22.5948075 27.5158792,23.8357548 26.9844333,24.3822216 C26.3100125,25.0997764 25.5541292,25.1031532 25.207775,25.1453622 C22.7262167,25.3277056 19,25.3333333 19,25.3333333 C19,25.3333333 14.3893333,25.2905614 12.9706667,25.1521158 C12.5761,25.0772647 11.6899875,25.0997764 11.0150125,24.3822216 C10.4835667,23.8357548 10.3106667,22.5948075 10.3106667,22.5948075 C10.3106667,22.5948075 10.1333333,21.1377496 10.1333333,19.6801292 L10.1333333,18.3136801 C10.1333333,16.8566223 10.3106667,15.3990019 10.3106667,15.3990019 C10.3106667,15.3990019 10.4835667,14.1580545 11.0150125,13.6115873 C11.6899875,12.894033 12.4453167,12.8906562 12.792225,12.84901 C15.2737833,12.6666667 18.9961208,12.6666667 18.9961208,12.6666667 L19.0038792,12.6666667 C19.0038792,12.6666667 22.7262167,12.6666667 25.207775,12.84901 C25.5541292,12.8906562 26.3100125,12.894033 26.9844333,13.6115873 C27.5158792,14.1580545 27.6893333,15.3990019 27.6893333,15.3990019 Z M17.1690333,21.3358511 L21.9598042,18.8145615 L17.1684792,16.2758255 L17.1690333,21.3358511 Z" id="Combined-Shape"></path>
                </g>
            </g>
        </g>
    </g>
</svg>